<svg xmlns="http://www.w3.org/2000/svg" width="217.027" height="151.024" viewBox="0 0 217.027 151.024">
  <g id="Group_2" data-name="Group 2" transform="translate(-1136.575 -244.923)">
    <path id="Path_4" data-name="Path 4" d="M1527.059,276.363a4.032,4.032,0,0,1-1.823,3.155l-9.156,5.288a4.046,4.046,0,0,1-3.641,0l-9.155-5.288c-1-.579-1.823-1.409-1.823-1.843V265.784a4.038,4.038,0,0,1,1.823-3.151l9.155-5.29a4.034,4.034,0,0,1,3.641,0l9.156,5.29a4.032,4.032,0,0,1,1.823,3.151Zm-1.823,27.814a4.028,4.028,0,0,1,1.823,3.149v10.58a4.045,4.045,0,0,1-1.823,3.154l-9.156,5.284a4.019,4.019,0,0,1-3.641,0l-9.155-5.284a4.051,4.051,0,0,1-1.823-3.154V292.555c0-1.158.82-1.629,1.823-1.053l9.155,5.289c1,.577,1.821,1.048,1.821,1.048s.826.472,1.825,1.053Zm12.2-44.384a4.043,4.043,0,0,0-1.822-3.153l-19.533-11.282a4.028,4.028,0,0,0-3.641,0L1492.9,256.64a4.056,4.056,0,0,0-1.813,3.153v64.1a4.046,4.046,0,0,0,1.813,3.154l19.535,11.285a4.055,4.055,0,0,0,3.641,0l19.533-11.285a4.033,4.033,0,0,0,1.822-3.154v-22.56a4.039,4.039,0,0,0-1.822-3.154l-9.15-5.29a1.11,1.11,0,0,1,0-2.1l9.15-5.285a4.032,4.032,0,0,0,1.822-3.15Z" transform="translate(-183.833)" fill="#0092e5"/>
    <path id="Path_5" data-name="Path 5" d="M1457.663,298.534c1,.577,1.821.1,1.821-1.053V283.889c0-1.158-.819-1.626-1.817-1.051l-11.762,6.815a1.112,1.112,0,0,0,.006,2.1Z" transform="translate(-160.013 -19.533)" fill="#0092e5"/>
    <path id="Path_6" data-name="Path 6" d="M1162.133,375.222q0-3.895-4.409-3.9h-7.994v10.833h6.525q5.877,0,5.879-4.063Zm-1.673-19.45q0-3.285-4.206-3.283h-6.525v10.63h6.525q4.208,0,4.206-3.283Zm12.164,23.723q0,11.146-13.5,11.146h-19.885V344.011h18.416q7.009,0,10.288,2.736,3,2.526,3.009,7.486v4.749q0,5.133-5.194,7.35,6.868,1.639,6.867,8.618Z" transform="translate(-1.381 -51.381)" fill="#1a1311"/>
    <path id="Path_7" data-name="Path 7" d="M1222.351,390.641v-46.63h29.319v9.3h-18.828v8.549H1250.2v9.328h-17.354v10.152h18.828v9.3Z" transform="translate(-44.479 -51.382)" fill="#1a1311"/>
    <path id="Path_8" data-name="Path 8" d="M1299.926,390.641v-46.63h29.32v9.3h-18.829v8.549h17.355v9.328h-17.355v10.152h18.829v9.3Z" transform="translate(-84.705 -51.382)" fill="#1a1311"/>
    <path id="Path_9" data-name="Path 9" d="M1392.79,353.309v37.332H1382.3V353.309h-12.542v-9.3H1405.3v9.3Z" transform="translate(-120.914 -51.382)" fill="#1a1311"/>
    <g id="Group_1" data-name="Group 1" transform="translate(1136.575 347.956)">
      <path id="Path_10" data-name="Path 10" d="M1165.449,503.5q-3.761,3.421-13.838,3.417a35.807,35.807,0,0,1-15.036-3.01l1.744-8.1a57.5,57.5,0,0,0,6.523,1.605,39.926,39.926,0,0,0,6.9.616c2.666,0,4.423-.334,5.262-.994q1.2-.991,1.2-3.964,0-3.217-1.058-4.138-1.2-.991-6.8-2.221-8.372-1.847-10.7-4.549-2.219-2.593-2.22-10.252,0-7.181,3.243-9.983,3.487-3,12.855-3.005a65.644,65.644,0,0,1,6.625.343,63.644,63.644,0,0,1,7.482,1.192l-1.023,8.821a79.413,79.413,0,0,0-12.949-1.331q-3.524,0-4.649.849c-.729.546-1.1,1.688-1.1,3.422q0,3.316,1.028,4.172.954.782,6.524,2.116,9.027,2.152,11.346,4.992a8.167,8.167,0,0,1,1.573,3.894,38.186,38.186,0,0,1,.309,5.747q0,7.382-3.247,10.356" transform="translate(-1136.575 -458.926)" fill="#1a1311"/>
      <path id="Path_11" data-name="Path 11" d="M1239.071,474.1q0-5.879-7.587-5.876-7.553,0-7.552,5.876v17.642q0,5.879,7.552,5.876,7.582,0,7.587-5.876Zm10.487,18.561a12.782,12.782,0,0,1-4.1,9.78q-4.781,4.477-13.972,4.475-9.16,0-13.943-4.475a12.781,12.781,0,0,1-4.1-9.78v-19.48a12.782,12.782,0,0,1,4.1-9.78q4.783-4.478,13.943-4.476,9.191,0,13.972,4.476a12.784,12.784,0,0,1,4.1,9.78Z" transform="translate(-1176.433 -458.926)" fill="#1a1311"/>
    </g>
    <path id="Path_12" data-name="Path 12" d="M1300.184,506.969v-46.63h29.591v9.3h-19.1v9.944h17.633v9.332h-17.633v18.05Z" transform="translate(-84.839 -111.703)" fill="#1a1311"/>
    <path id="Path_13" data-name="Path 13" d="M1392.55,469.638v37.327h-10.493V469.638h-12.542v-9.3h35.537v9.3Z" transform="translate(-120.79 -111.703)" fill="#1a1311"/>
  </g>
</svg>
