<svg xmlns="http://www.w3.org/2000/svg" width="446.051" height="160.782" viewBox="0 0 446.051 160.782"><g transform="translate(-954.975 -7928.145)"><text transform="translate(954.975 8000)" fill="#525969" font-size="40" font-family="ArialMT, Arial" letter-spacing="0.02em"><tspan x="0" y="0">Power by</tspan></text><g transform="translate(975.868 7463.073)"><path d="M423.237,498.544A4.293,4.293,0,0,1,421.3,501.9l-9.747,5.629a4.308,4.308,0,0,1-3.876,0l-9.747-5.629c-1.067-.616-1.942-1.5-1.942-1.962V487.281a4.3,4.3,0,0,1,1.942-3.355l9.747-5.631a4.3,4.3,0,0,1,3.876,0l9.747,5.631a4.294,4.294,0,0,1,1.941,3.355ZM421.3,528.155a4.289,4.289,0,0,1,1.941,3.353v11.263a4.305,4.305,0,0,1-1.941,3.357l-9.747,5.626a4.284,4.284,0,0,1-3.876,0l-9.747-5.626a4.313,4.313,0,0,1-1.942-3.357v-26.99c0-1.233.874-1.734,1.942-1.121l9.747,5.631c1.064.614,1.94,1.116,1.94,1.116s.879.5,1.942,1.121ZM434.282,480.9a4.305,4.305,0,0,0-1.939-3.357l-20.795-12.012a4.29,4.29,0,0,0-3.876,0l-20.8,12.012a4.318,4.318,0,0,0-1.931,3.357v68.244a4.306,4.306,0,0,0,1.931,3.358l20.8,12.015a4.32,4.32,0,0,0,3.876,0l20.795-12.015a4.294,4.294,0,0,0,1.939-3.358V525.131a4.3,4.3,0,0,0-1.939-3.357l-9.741-5.632a1.181,1.181,0,0,1,0-2.238l9.741-5.626a4.291,4.291,0,0,0,1.939-3.353Z" transform="translate(-9.125)" fill="#00a1ed"/><path d="M373.533,502.322c1.067.614,1.939.111,1.939-1.122V486.73c0-1.232-.871-1.731-1.935-1.118l-12.522,7.256a1.184,1.184,0,0,0,.006,2.24Z" transform="translate(-7.943 -0.97)" fill="#00a1ed"/><path d="M219.915,551.639q0-4.146-4.694-4.151H206.71v11.533h6.946q6.256,0,6.259-4.325Zm-1.782-20.707q0-3.5-4.477-3.495H206.71v11.316h6.946q4.481,0,4.477-3.495Zm12.95,25.256q0,11.866-14.372,11.866h-21.17V518.412h19.605q7.461,0,10.953,2.913,3.2,2.689,3.2,7.969v5.056q0,5.465-5.529,7.826,7.311,1.744,7.31,9.174Z" transform="translate(-0.069 -2.55)" fill="#1a1818"/><path d="M240.281,568.054V518.412h31.214v9.9H251.45v9.1h18.475v9.93H251.45V558.15h20.045v9.9Z" transform="translate(-2.208 -2.551)" fill="#1a1818"/><path d="M282.04,568.054V518.412h31.215v9.9H293.209v9.1h18.476v9.93H293.209V558.15h20.046v9.9Z" transform="translate(-4.205 -2.551)" fill="#1a1818"/><path d="M344.152,528.31v39.744H332.982V528.31H319.629v-9.9h37.839v9.9Z" transform="translate(-6.002 -2.551)" fill="#1a1818"/><g transform="translate(194.107 574.763)"><path d="M224.846,627.724q-4,3.642-14.732,3.638a38.131,38.131,0,0,1-16.007-3.2l1.857-8.62a61.441,61.441,0,0,0,6.945,1.709,42.531,42.531,0,0,0,7.349.655c2.838,0,4.71-.354,5.6-1.058q1.278-1.054,1.275-4.219c0-2.284-.375-3.75-1.126-4.406q-1.277-1.054-7.241-2.363-8.912-1.967-11.387-4.844-2.361-2.759-2.363-10.914,0-7.646,3.453-10.628,3.712-3.2,13.686-3.2a70.109,70.109,0,0,1,7.053.365,67.861,67.861,0,0,1,7.965,1.269l-1.089,9.391a84.519,84.519,0,0,0-13.785-1.417q-3.752,0-4.949.9c-.776.582-1.168,1.8-1.168,3.642q0,3.531,1.1,4.442,1.016.833,6.946,2.253,9.609,2.291,12.078,5.314a8.705,8.705,0,0,1,1.675,4.146,40.635,40.635,0,0,1,.329,6.119q0,7.86-3.457,11.024" transform="translate(-194.107 -580.271)" fill="#1a1818"/><path d="M262.771,596.425q0-6.257-8.076-6.255-8.041,0-8.041,6.255v18.783q0,6.259,8.041,6.256,8.071,0,8.076-6.256Zm11.165,19.762a13.608,13.608,0,0,1-4.367,10.411q-5.09,4.768-14.875,4.765-9.752,0-14.845-4.765a13.6,13.6,0,0,1-4.366-10.411V595.448a13.609,13.609,0,0,1,4.366-10.412q5.092-4.768,14.845-4.765,9.784,0,14.875,4.765a13.613,13.613,0,0,1,4.367,10.412Z" transform="translate(-196.085 -580.271)" fill="#1a1818"/></g><path d="M282.179,630.675V581.031h31.5v9.9H293.348v10.587H312.12v9.935H293.348v19.216Z" transform="translate(-4.211 -5.545)" fill="#1a1818"/><path d="M344.023,590.931V630.67H332.853V590.931H319.5v-9.9h37.833v9.9Z" transform="translate(-5.996 -5.545)" fill="#1a1818"/></g></g></svg>