<svg xmlns="http://www.w3.org/2000/svg" width="120.257" height="116.344" viewBox="0 0 120.257 116.344">
    <path d="M233.559,173.584l-2.425.344a.025.025,0,0,1-.028-.028l1.909-14.48a4.112,4.112,0,0,0-4.652-4.609l-5.262.79a.025.025,0,0,1-.028-.028l.534-4.054a4.235,4.235,0,0,0-1.106-3.5,4.08,4.08,0,0,0-3.532-1.214l-1.565.244a.025.025,0,0,1-.028-.028l.479-3.636a4.243,4.243,0,0,0-1.148-3.556,4.073,4.073,0,0,0-2.67-1.2.025.025,0,0,1-.023-.028c1.338-10.372,1.339-10.66,1.339-10.791a3.363,3.363,0,0,0-1.17-2.574,4.3,4.3,0,0,0-3.387-.91l-23.329,3.24a3.258,3.258,0,0,0-2.145,1.256l-6.121,6.853a.025.025,0,0,1-.015.008l-59.8,8.714a4.775,4.775,0,0,0-4.361,5.018l0,.046,11.343,88.852a2.626,2.626,0,0,0,2.991,2.283l98.06-13.88a1.489,1.489,0,0,0,1.268-1.281l6.562-50.177A1.489,1.489,0,0,0,233.559,173.584ZM217.645,156.4a.025.025,0,0,1-.021.022l-79.332,11.916a4.124,4.124,0,0,0-3.487,3.536l-.4,3.261a.143.143,0,0,1-.285-.019l.112-9.735a.025.025,0,0,1,.021-.024l83.9-13.1a.025.025,0,0,1,.029.028Zm-85.17,3.9A4.124,4.124,0,0,0,129,163.836l-.02.155-.106,9.245a.085.085,0,0,1-.17,0l-1.02-15.984a.025.025,0,0,1,.021-.026l84.7-13.114a.025.025,0,0,1,.028.028l-.492,3.736a.025.025,0,0,1-.021.022Zm48.191-19.513a3.257,3.257,0,0,0,2.15-1.256l6.116-6.847a.025.025,0,0,1,.015-.008l20.848-2.9a.024.024,0,0,1,.028.027c-.257,2.049-.688,5.4-1.225,9.545a.025.025,0,0,1-.021.022L125.83,152.185a4.124,4.124,0,0,0-3.48,3.535l-.033.251a.037.037,0,0,0,0,0l1.114,17.458a.083.083,0,0,1-.164.015L120.35,149.6a.025.025,0,0,1,.021-.028Zm4.967,39.356-9.4-8.551a.638.638,0,0,0-.518-.16l-36.173,5.379a.025.025,0,0,1-.028-.028l.408-3.34a.025.025,0,0,1,.021-.022l87.607-13.159a.025.025,0,0,1,.029.028l-1.9,14.392a.025.025,0,0,1-.021.022l-39.49,5.605A.663.663,0,0,1,185.634,180.144Z"
          transform="translate(-115 -124.273)" fill="#fff"/>
</svg>