<svg xmlns="http://www.w3.org/2000/svg" width="154.429" height="112.082" viewBox="0 0 154.429 112.082"><g transform="translate(0 0)"><g transform="translate(92.533)"><path d="M513.627,193.151H461.35a4.8,4.8,0,0,0-4.81,4.81v15.233h25.9v13.414h26.2a1.435,1.435,0,0,1,1.43,1.431v9.685a1.435,1.435,0,0,1-1.43,1.431h-26.2v56.6h-25.9v4.665a4.8,4.8,0,0,0,4.81,4.81h52.277a4.805,4.805,0,0,0,4.809-4.81V197.961A4.805,4.805,0,0,0,513.627,193.151Zm-5.37,11.6H466.435a1.673,1.673,0,0,1,0-3.346h41.822a1.673,1.673,0,0,1,0,3.346Zm1.815,56.992H489.161v-6.691h20.911Zm0-11.092H489.161v-6.692h20.911Z" transform="translate(-456.54 -193.151)" fill="#fff" fill-rule="evenodd"/></g><g transform="translate(0 26.811)"><path d="M226.665,361.14V292.111H115V361.14h45.173v9.136H149.515a2.376,2.376,0,0,0-2.369,2.369v2.369a2.376,2.376,0,0,0,2.369,2.368H192.15a2.376,2.376,0,0,0,2.369-2.368v-2.369a2.376,2.376,0,0,0-2.369-2.369H181.491V361.14Zm-103.206-8.459V300.57h94.746v52.11Z" transform="translate(-115 -292.111)" fill="#fff" fill-rule="evenodd"/></g></g><path d="M161.239,338.35v43.974h86.61V338.35Zm17.471,34.731-4.219-4.219,8.525-8.525-8.525-8.525,4.219-4.219,12.744,12.744Zm33.034.563H194.179v-5.966h17.565Z" transform="translate(-148.712 -299.011)" fill="#fff" fill-rule="evenodd"/></svg>