<svg xmlns="http://www.w3.org/2000/svg" width="128.256" height="125.783" viewBox="0 0 128.256 125.783"><g transform="translate(0)"><path d="M127.925,161.45a3.338,3.338,0,0,0,4.222-2.123c1.473-4.45,4.758-8.652,9.5-12.154a43.227,43.227,0,0,1,49.817,0c4.742,3.5,8.026,7.7,9.5,12.154a3.342,3.342,0,1,0,6.345-2.1c-1.909-5.768-6.015-11.1-11.874-15.43a47.09,47.09,0,0,0-17.1-7.822,6.977,6.977,0,1,0-11.674-7.536,6.978,6.978,0,1,0-11.7,7.5,47.124,47.124,0,0,0-17.275,7.861c-5.859,4.326-9.965,9.662-11.874,15.43A3.342,3.342,0,0,0,127.925,161.45Z" transform="translate(-123.728 -122.687)" fill="#fff"/><path d="M160.789,274.084a27.88,27.88,0,0,1,27.849-27.849c.687,0,1.382.029,2.076.081l.149-.4a27.635,27.635,0,0,1,3.593-6.66,10.026,10.026,0,0,1-1.848-5.019c-.466-5.617-3.915-11.393-9.463-15.846a37.394,37.394,0,0,0-45.96,0c-5.549,4.453-9,10.229-9.463,15.846A10.025,10.025,0,0,1,125.1,240.2a32.706,32.706,0,0,0-5.047,7.127,23.761,23.761,0,0,0-2.814,10.951c0,9.888,6.837,16.012,12.573,19.409,7.8,4.617,18.576,7.159,30.354,7.159q1.4,0,2.772-.049A27.7,27.7,0,0,1,160.789,274.084Z" transform="translate(-117.236 -190.581)" fill="#fff"/><g transform="translate(49.223 42.865)"><path d="M567.113,536.486h-4.13l-3.121,4.96-3.121-4.96h-4.13l4.844,7.7H552.5v2.642h5.38v1.761H552.5v2.643h5.38V556h3.97v-4.773h5.38v-2.643h-5.38v-1.761h5.38v-2.642h-4.958Z" transform="translate(-503.007 -485.506)" fill="#fff"/><path d="M532.659,514.472a21.958,21.958,0,0,0-2.334-8.226l-.032-.064q-.1-.191-.2-.38l-.017-.043-.022-.029a22.484,22.484,0,0,0-6.019-7.044c-.432-.332-.879-.646-1.335-.945a27.041,27.041,0,0,1-5.248,3.819,16.263,16.263,0,0,1,9.364,14.312c0,.138.005.277.005.416a16.265,16.265,0,0,1-32.53,0s0-.009,0-.013a27.034,27.034,0,0,1-5.562,3.964,22.178,22.178,0,0,0,43.929-2.124c.012-.146.022-.292.031-.44.03-.486.045-.94.045-1.387C532.734,515.691,532.709,515.08,532.659,514.472Z" transform="translate(-453.701 -455.547)" fill="#fff"/><path d="M508.2,332.059a21.958,21.958,0,0,0-2.334-8.226l-.032-.064q-.1-.191-.2-.38l-.018-.044-.022-.029a22.316,22.316,0,0,0-9.082-9.019,22.169,22.169,0,0,0-31.2,11.848,27.152,27.152,0,0,1,5.268,2.137c.069.037.137.078.207.116A16.292,16.292,0,0,1,486.1,317.608c.487,0,.987.023,1.487.069a16.268,16.268,0,0,1,14.773,15.78c0,.139.005.277.005.416A16.273,16.273,0,0,1,486.1,350.138c-.393,0-.782-.019-1.168-.047,0,0,0,.009,0,.014.061.746.091,1.495.091,2.226,0,.551-.017,1.107-.054,1.7-.011.182-.024.362-.038.54q-.059.723-.157,1.44c.438.026.88.041,1.325.041A22.167,22.167,0,0,0,508.2,335.7c.012-.146.022-.293.031-.44.03-.486.045-.94.045-1.387C508.276,333.277,508.251,332.667,508.2,332.059Z" transform="translate(-435.593 -311.694)" fill="#fff"/><path d="M414.216,447.852h-4.13l-3.121,4.96-3.121-4.96h-4.13l4.844,7.7H399.6v2.642h5.38v1.762H399.6V462.6h5.38v4.773h3.97V462.6h5.379v-2.642H408.95v-1.762h5.379V455.55h-4.958Z" transform="translate(-384.786 -416.973)" fill="#fff"/><path d="M356.457,437.443a22.185,22.185,0,1,1,13.478-39.78,22.492,22.492,0,0,1,6.019,7.044l.022.029.017.044c.068.126.135.253.2.381l.032.063a21.967,21.967,0,0,1,2.334,8.226c.049.608.074,1.219.074,1.814,0,.448-.015.9-.044,1.387q-.014.221-.031.44a22.2,22.2,0,0,1-22.1,20.352Zm0-38.444a16.27,16.27,0,1,0,16.265,16.265c0-.139,0-.278-.005-.416a16.2,16.2,0,0,0-3.209-9.28,16.315,16.315,0,0,0-8.374-5.883,16.2,16.2,0,0,0-3.19-.618C357.445,399.023,356.945,399,356.457,399Z" transform="translate(-334.278 -374.626)" fill="#fff"/><path d="M539.231,376.8v-2.642h-4.957l4.844-7.7h-4.13l-3.121,4.96-3.121-4.96h-4.13l4.844,7.7H524.5V376.8h5.38v1.762H525.5a27.325,27.325,0,0,1,1.721,2.643h2.664v4.773h3.97V381.2h5.379V378.56h-5.379V376.8Z" transform="translate(-481.361 -354.038)" fill="#fff"/></g></g></svg>