<svg xmlns="http://www.w3.org/2000/svg" width="124.32" height="63.957" viewBox="0 0 124.32 63.957"><g transform="translate(-115.928 -253.859)"><path d="M198.916,301.094h-58.8V257.947h75.613v6.246h4.424v-5.563a4.774,4.774,0,0,0-4.772-4.772H140.46a4.774,4.774,0,0,0-4.772,4.772V307.3h63.228Z" transform="translate(-15.436 0)" fill="#474645" fill-rule="evenodd"/><path d="M183.48,514.343v-5.524H115.928v5.729a2.444,2.444,0,0,0,2.437,2.438h65.6A7.412,7.412,0,0,1,183.48,514.343Zm-14.173-.161h-13.65a1.219,1.219,0,0,1,0-2.437h13.65a1.219,1.219,0,0,1,0,2.437Z" transform="translate(0 -199.17)" fill="#474645" fill-rule="evenodd"/><path d="M471.955,367.128h-21V326.889h32.253v3.466h4.354v-4.667a2.65,2.65,0,0,0-2.643-2.642H449.244a2.65,2.65,0,0,0-2.642,2.642V369.22a2.65,2.65,0,0,0,2.642,2.643h24.509A10.886,10.886,0,0,1,471.955,367.128Z" transform="translate(-258.317 -54.047)" fill="#6d301f" fill-rule="evenodd"/><path d="M601.376,378.408H588.515A4.532,4.532,0,0,0,584,382.927v26.038a6.163,6.163,0,0,0,6.146,6.145h9.607a6.163,6.163,0,0,0,6.146-6.145V382.927A4.532,4.532,0,0,0,601.376,378.408ZM597.431,412.8H592.46a.9.9,0,0,1,0-1.807h4.971a.9.9,0,0,1,0,1.807Zm5.485-4.126H586.974v-25.7h15.942Z" transform="translate(-365.647 -97.296)" fill="#b40019" fill-rule="evenodd"/></g></svg>