<svg xmlns="http://www.w3.org/2000/svg" width="95.226" height="88.416" viewBox="0 0 95.226 88.416"><g transform="translate(-115 -135.381)"><path d="M179.969,198.159V217.1H121.7v-75.02H161.55V160.84l15.668-15.668-9.455-9.789-52.762,0V223.8h71.667V191.461Z" fill="#6f6f6f"/><path d="M283.032,230.82a2.587,2.587,0,0,1-2.5-3.257l6.453-24.082a2.6,2.6,0,0,1,.67-1.16l38.329-38.329a2.587,2.587,0,0,1,3.659,0l17.629,17.629a2.587,2.587,0,0,1,0,3.659L308.944,223.61a2.583,2.583,0,0,1-1.159.669L283.7,230.732A2.585,2.585,0,0,1,283.032,230.82Zm5.416-14.021,6.018,6.017,9.647-2.584-1.552-4.06-6.083-1.527-1.528-6.083-3.9-1.49Zm17.1-6.765,2.954,2.954,29.39-29.39-2.954-2.954Zm-7.461-7.461,2.954,2.954,29.39-29.39-2.954-2.954Z" transform="translate(-137.805 -23.201)" fill="#005726"/></g></svg>