<svg xmlns="http://www.w3.org/2000/svg" width="118.509" height="98.302" viewBox="0 0 118.509 98.302"><g transform="translate(-380 -3191.96)"><path d="M164.829,241.631H123.988V179.936h94.819V195.22a39.215,39.215,0,0,1,7.453,4.5V169.838a4.983,4.983,0,0,0-4.968-4.969H121.5a4.983,4.983,0,0,0-4.968,4.969v74.278a4.983,4.983,0,0,0,4.968,4.968h46.337A38.892,38.892,0,0,1,164.829,241.631Zm-17.852-72.264a3.116,3.116,0,1,1-3.116,3.116A3.116,3.116,0,0,1,146.977,169.366Zm-9.937,0a3.116,3.116,0,1,1-3.116,3.116A3.116,3.116,0,0,1,137.04,169.366Zm-9.937,0a3.116,3.116,0,1,1-3.116,3.116A3.116,3.116,0,0,1,127.1,169.366Z" transform="translate(263.465 3027.092)" fill="#474645"/><g transform="translate(433.244 3260.107)"><path d="M375.808,505.694a32.694,32.694,0,0,1-4.561-14.82h11.282a41.231,41.231,0,0,0,3.218,14.228q.126.3.256.592Z" transform="translate(-371.247 -490.874)" fill="#1b398c"/></g><g transform="translate(454.536 3278.808)"><path d="M482.505,590.176a37.742,37.742,0,0,1-9.4-9.841h9.4Z" transform="translate(-473.105 -580.335)" fill="#1b398c"/></g><g transform="translate(467.817 3227.685)"><path d="M536.64,344.573v-8.8a37.821,37.821,0,0,1,8.692,8.8Z" transform="translate(-536.64 -335.77)" fill="#1b398c"/></g><g transform="translate(467.817 3240.368)"><path d="M536.64,412.3V396.445h11.1a37.153,37.153,0,0,1,4.429,15.859Z" transform="translate(-536.64 -396.445)" fill="#1b398c"/></g><g transform="translate(448.411 3260.107)"><path d="M447.693,505.694a37.213,37.213,0,0,1-3.889-14.82h15.525v14.82Z" transform="translate(-443.804 -490.874)" fill="#1b398c"/></g><g transform="translate(472.103 3226.072)"><path d="M566.216,338.47a41.7,41.7,0,0,0-6.068-7.69c-.95-.95-1.958-1.864-3.006-2.725a32.731,32.731,0,0,1,18.239,10.415Z" transform="translate(-557.142 -328.055)" fill="#1b398c"/></g><g transform="translate(467.817 3278.808)"><path d="M536.64,580.335h9.4a37.742,37.742,0,0,1-9.4,9.841Z" transform="translate(-536.64 -580.335)" fill="#1b398c"/></g><g transform="translate(472.102 3278.808)"><path d="M557.14,591.789c1.047-.861,2.056-1.775,3.007-2.725a41.624,41.624,0,0,0,6.683-8.729h9.433A32.613,32.613,0,0,1,557.14,591.789Z" transform="translate(-557.14 -580.335)" fill="#1b398c"/></g><g transform="translate(440.528 3278.808)"><path d="M425.216,591.789a32.612,32.612,0,0,1-19.123-11.454h9.434a41.6,41.6,0,0,0,6.682,8.729C423.16,590.015,424.169,590.929,425.216,591.789Z" transform="translate(-406.093 -580.335)" fill="#1b398c"/></g><g transform="translate(467.817 3260.107)"><path d="M536.64,505.694v-14.82h15.525a37.219,37.219,0,0,1-3.889,14.82Z" transform="translate(-536.64 -490.874)" fill="#1b398c"/></g><g transform="translate(483.753 3260.107)"><path d="M612.876,505.694q.13-.3.256-.592a41.23,41.23,0,0,0,3.218-14.228h11.282a32.69,32.69,0,0,1-4.561,14.82Z" transform="translate(-612.876 -490.874)" fill="#1b398c"/></g><g transform="translate(483.277 3240.368)"><path d="M614.547,412.3a41.229,41.229,0,0,0-3.218-14.227c-.226-.535-.472-1.083-.732-1.631h10.021a32.624,32.624,0,0,1,5.211,15.859Z" transform="translate(-610.597 -396.445)" fill="#1b398c"/></g><path d="M505.936,337.077c.04.471.063.948.063,1.43a16.764,16.764,0,0,1-1.124,6.064h2.759v-8.8Q506.765,336.4,505.936,337.077Z" transform="translate(-43.698 2891.916)" fill="#1b398c"/><g transform="translate(391.621 3217.659)"><path d="M302.509,308.652H291.057V303.03h8.76v-4.842h-8.761v-5h11.2v-4.939h-16.9v25.346h17.146Z" transform="translate(-261.693 -288.153)" fill="#b34d5b"/><path d="M181.984,308.493a6.021,6.021,0,0,1-4.991-3.223l-4.864,1.808c1.416,3.91,4.843,6.26,9.887,6.26,6.04,0,9.424-2.888,9.424-7.89,0-3.758-2.4-5.994-6.135-7.206l-3.921-1.273c-1.834-.59-2.656-1.3-2.656-2.3,0-1.242.981-2.206,3.415-2.206a4.648,4.648,0,0,1,3.847,1.962l4.707-1.749.079-.056c-1.423-3.23-4.395-4.815-8.855-4.814-5.534,0-8.759,3.262-8.759,7.174,0,3.6,1.929,5.466,5.692,6.8l3.573,1.242c2.277.838,3.1,1.708,3.1,3.044C185.526,307.561,184.42,308.493,181.984,308.493Z" transform="translate(-172.129 -287.809)" fill="#b34d5b"/><path d="M397.047,313.475c6.364,0,11.525-5.694,11.525-12.716s-5.16-12.715-11.524-12.715-11.523,5.693-11.524,12.715S390.683,313.473,397.047,313.475Zm0-19.671c2.883,0,5.319,3.185,5.319,6.954s-2.436,6.956-5.319,6.956-5.319-3.185-5.319-6.956S394.164,293.8,397.047,293.8Z" transform="translate(-340.917 -287.994)" fill="#b34d5b"/></g><path d="M375.634,402.88a32.624,32.624,0,0,0-4.387,14.513h11.282a41.293,41.293,0,0,1,1.74-10.144A14.064,14.064,0,0,1,375.634,402.88Z" transform="translate(61.997 2838.833)" fill="#1b398c"/><path d="M454.413,396.445a14.4,14.4,0,0,1-8.61,5.529,37.256,37.256,0,0,0-2,10.33h15.525V396.445Z" transform="translate(4.607 2843.923)" fill="#1b398c"/></g></svg>