<svg xmlns="http://www.w3.org/2000/svg" width="110.081" height="110.081" viewBox="0 0 110.081 110.081"><g transform="translate(-1054 -2568.919)"><circle cx="52.441" cy="52.441" r="52.441" transform="translate(1056.6 2571.519)" fill="#0099db"/><path d="M581.292,500.509a4.78,4.78,0,0,1-.165,1.227c.106-.1.214-.207.32-.312a49.884,49.884,0,0,0,12.12-19.557c-2.055,3.106-4.666,7.183-6.219,10.1C584.5,497.3,581.292,496.591,581.292,500.509Z" transform="translate(563.017 2157.959)" fill="none"/><path d="M180.359,155.173c2.616,1.26,5.87,6.28,7.365,10.078,1.652,4.2-2.7,7.3-6.075,11.421s-4.5,8.242-8.242,11.613-10.115,3.746-10.115,6.743.375,4.121,1.124,9.74,3.372,10.864-3.746,6.369a12.229,12.229,0,0,1-1.86-1.437,50.132,50.132,0,0,0,77.712,21.292c-.414-.153-.686-.568-.686-1.313,0-3.205.112-13.233-.356-15.671s1.311-6.987,1.276-9.9c-.04-3.334-.7-5.626-1.632-6.483a74.987,74.987,0,0,0-10.506-5.342c-1.424-.356-4.094-3.26-6.589-5.7s-2.494-12.031-4.274-14.6c-2.954-4.268-3.195-2.688-5.7-4.274s-.713-4.274-5.342-2.493-5.262,3.013-7.123,2.493S193.1,164.5,193.1,164.5s-5.137-12.044-5.014-13.982,10.655-5.519,13.5-3.738,8.034-.464,8.034-.464h3.682l3.655.021a56.2,56.2,0,0,0,8.192,0,7.2,7.2,0,0,1,2.576.321,50.176,50.176,0,0,0-55.975,7.974C176.036,155.263,178.528,154.291,180.359,155.173Z" transform="translate(903.487 2432.351)" fill="none"/><path d="M534.153,233.168c-.4,1.706-5.552,7.709-6.767,9.972-1.285,2.393-4.027,4.352-5.342,5.342a51.532,51.532,0,0,1-5.7,2.493s-.712,0,0,2.137,2.849,3.206,5.7,4.63,3.594.29,6.055,0a14.839,14.839,0,0,1,6.054.633c1.132.4,7.044,3,7.479,4,.194.444.712,1.485,1.225,2.5a50.68,50.68,0,0,0,.781-8.874,49.75,49.75,0,0,0-13.886-34.617,5.788,5.788,0,0,1,.483,1.458C530.591,225.332,534.549,231.462,534.153,233.168Z" transform="translate(615.499 2367.961)" fill="none"/><path d="M231.514,513.432c2.248-1.5,3.746-4.5,8.616-4.121s5.994-3.726,7.492-2.424,4.5,4.672,4.5,4.672a50.65,50.65,0,0,0,0,7.867c.375,3,1.5,5.994-2.622,5.994s-8.194-3.708-10.49-4.121c-3.731-.671-9.263.375-9.747-1.747S231.514,513.432,231.514,513.432Z" transform="translate(846.737 2137.995)" fill="#008a32"/><path d="M236.464,363.645c-.321.091-.035,1.966-1.809,3.543a17.089,17.089,0,0,1-5.039,2.917s-.969.581-1.163,1.163-1.817,3.506,0,2.326c3.894-2.528,4.928-.416,6.008-1.357a11.47,11.47,0,0,0,2.335-3.676s.956-3.148.98-3.529S236.785,363.553,236.464,363.645Z" transform="translate(848.028 2253.273)" fill="#c04c5c"/><path d="M272.268,347.616s-.009-1.615.9-1.615,2.778.388,3.036.807,1.034,1.324.775,1.841.194.388-1.227.9-1.68.452-2.519,0S272.268,347.616,272.268,347.616Z" transform="translate(812.018 2267.493)" fill="#c04c5c"/><path d="M171.041,116a55.041,55.041,0,1,0,55.041,55.041A55.041,55.041,0,0,0,171.041,116Zm50.1,55.041a50.717,50.717,0,0,1-.71,8.47c-.441-.877-.853-1.711-1.021-2.1-.436-1-6.347-3.6-7.479-4a14.838,14.838,0,0,0-6.054-.633c-2.46.29-3.205,1.424-6.055,0s-4.986-2.493-5.7-4.63,0-2.137,0-2.137a51.529,51.529,0,0,0,5.7-2.493c1.316-.991,4.057-2.949,5.342-5.342,1.215-2.263,6.37-8.266,6.767-9.972s-3.562-7.835-3.918-10.328a4.546,4.546,0,0,0-.266-.934A49.738,49.738,0,0,1,221.137,171.041Zm-85.52,35.423a49.984,49.984,0,0,1-11.167-16.948,12.329,12.329,0,0,0,1.432,1.054c7.118,4.5,4.5-.75,3.746-6.369s-1.124-6.743-1.124-9.74,6.369-3.372,10.115-6.743,4.87-7.492,8.242-11.613,7.727-7.223,6.075-11.421c-1.495-3.8-4.748-8.818-7.365-10.078-1.8-.865-4.232.049-8.365-.507a50.176,50.176,0,0,1,55.715-8.148,6.385,6.385,0,0,0-2.008-.178,56.2,56.2,0,0,1-8.192,0l-3.655-.021h-3.682s-5.185,2.245-8.034.464-13.381,1.8-13.5,3.738,5.014,13.982,5.014,13.982.633,2.685,2.493,3.205,2.493-.712,7.123-2.493,2.839.907,5.342,2.493,2.744.006,5.7,4.274c1.779,2.57,1.779,12.164,4.274,14.6s5.164,5.342,6.589,5.7a74.987,74.987,0,0,1,10.506,5.342c.93.858,1.592,3.149,1.632,6.483.035,2.912-1.744,7.462-1.276,9.9s.356,12.465.356,15.671a1.337,1.337,0,0,0,.517,1.229,50.1,50.1,0,0,1-66.5-3.876Zm70.879-.033a4.637,4.637,0,0,0,.087-.881c0-3.918,3.205-3.205,6.055-8.548,1.412-2.648,3.7-6.255,5.645-9.223A49.913,49.913,0,0,1,206.5,206.431Z" transform="translate(938 2452.919)" fill="#008a32"/></g></svg>